<?xml version="1.0" encoding="utf-8"?>
<!-- Generator: Adobe Illustrator 27.3.1, SVG Export Plug-In . SVG Version: 6.00 Build 0)  -->
<svg version="1.1" id="Calque_1" xmlns="http://www.w3.org/2000/svg" xmlns:xlink="http://www.w3.org/1999/xlink" x="0px" y="0px"
	 viewBox="0 0 124 24" style="enable-background:new 0 0 124 24;" xml:space="preserve">
<g>
	<path d="M7.7,16.5L8.8,14c1.2,0.9,3,1.5,4.7,1.5c1.9,0,2.7-0.6,2.7-1.5c0-2.6-8.2-0.8-8.2-6.1c0-2.4,1.9-4.4,5.9-4.4
		c1.8,0,3.6,0.4,4.9,1.3l-1,2.5c-1.3-0.7-2.7-1.1-3.9-1.1c-1.9,0-2.7,0.7-2.7,1.6c0,2.6,8.2,0.8,8.2,6c0,2.4-2,4.4-6,4.4
		C11.2,18.1,9,17.5,7.7,16.5z"/>
	<path d="M32.4,7v10.9h-3v-1.3c-0.8,0.9-2,1.5-3.4,1.5c-2.7,0-4.6-1.5-4.6-4.9V7h3.1v5.7c0,1.8,0.8,2.6,2.2,2.6
		c1.5,0,2.5-0.9,2.5-2.9V7H32.4z"/>
	<path d="M46.4,11.7v6.2h-3.1v-5.7c0-1.8-0.8-2.6-2.2-2.6c-1.5,0-2.6,0.9-2.6,2.9v5.4h-3.1V7h3v1.3c0.8-0.9,2.1-1.4,3.6-1.4
		C44.5,6.9,46.4,8.4,46.4,11.7z"/>
	<path d="M60.4,11.7v6.2h-3.1v-5.7c0-1.8-0.8-2.6-2.2-2.6c-1.5,0-2.6,0.9-2.6,2.9v5.4h-3.1V7h3v1.3c0.8-0.9,2.1-1.4,3.6-1.4
		C58.4,6.9,60.4,8.4,60.4,11.7z"/>
	<path d="M73.8,7l-4.9,11.5c-1,2.6-2.5,3.4-4.5,3.4c-1.1,0-2.3-0.4-3-1l1.1-2.2c0.5,0.4,1.2,0.7,1.8,0.7c0.9,0,1.4-0.4,1.8-1.4
		l0-0.1L61.4,7h3.2l3,7.4L70.8,7H73.8z"/>
	<path d="M73.9,16.9l1-2.3c1,0.6,2.4,1,3.8,1c1.5,0,2-0.4,2-1c0-1.8-6.6,0-6.6-4.3c0-2.1,1.9-3.5,5-3.5c1.5,0,3.1,0.3,4.2,0.9
		l-1,2.2c-1.1-0.6-2.1-0.8-3.1-0.8c-1.4,0-2,0.4-2,1c0,1.9,6.6,0.1,6.6,4.3c0,2-1.9,3.4-5.1,3.4C76.7,18.1,74.9,17.6,73.9,16.9z"/>
	<path d="M85.2,3.8c0-1,0.8-1.8,2-1.8c1.2,0,2,0.7,2,1.7c0,1-0.8,1.8-2,1.8C86,5.5,85.2,4.8,85.2,3.8z M85.6,7h3.1v10.9h-3.1V7z"/>
	<path d="M102.8,2.9v15h-3v-1.3c-0.8,0.9-1.9,1.4-3.4,1.4c-3.1,0-5.4-2.2-5.4-5.6s2.4-5.6,5.4-5.6c1.3,0,2.5,0.4,3.2,1.3V2.9H102.8z
		 M99.7,12.5c0-1.9-1.2-3-2.8-3c-1.6,0-2.8,1.1-2.8,3c0,1.9,1.2,3,2.8,3C98.5,15.5,99.7,14.3,99.7,12.5z"/>
	<path d="M116.2,13.4H108c0.3,1.4,1.5,2.2,3.1,2.2c1.1,0,2-0.3,2.7-1l1.7,1.8c-1,1.1-2.5,1.8-4.5,1.8c-3.8,0-6.2-2.4-6.2-5.6
		c0-3.2,2.5-5.6,5.8-5.6c3.2,0,5.6,2.1,5.6,5.6C116.3,12.8,116.3,13.1,116.2,13.4z M108,11.5h5.3c-0.2-1.4-1.3-2.3-2.7-2.3
		C109.2,9.3,108.2,10.1,108,11.5z"/>
</g>
</svg>
